                                                                        S      1
,,18HCylinder_M6_Holder,18HCylinder_M6_Holder,7Hunknown,7Hunknown,32,38,G      1
7,99,15,,1.,2,2HMM,1,0.08,15H20190627.153547,0.01,10000.,7Hunknown,7HunkG      2
nown,11,0,15H20190627.063503;                                           G      3
     186       1                                                00000000D      1
     186            -207       1       0                               0D      2
     514       2                                                00010000D      3
     514                       2       1                               0D      4
     510       4                                                00010000D      5
     510            -207       1       1                               0D      6
     510       5                                                00010000D      7
     510            -207       1       1                               0D      8
     510       6                                                00010000D      9
     510            -207       1       1                               0D     10
     510       7                                                00010000D     11
     510            -207       1       1                               0D     12
     510       8                                                00010000D     13
     510            -207       1       1                               0D     14
     510       9                                                00010000D     15
     510            -207       1       1                               0D     16
     510      10                                                00010000D     17
     510            -207       1       1                               0D     18
     510      11                                                00010000D     19
     510            -207       1       1                               0D     20
     510      12                                                00010000D     21
     510            -207       1       1                               0D     22
     510      13                                                00010000D     23
     510            -207       1       1                               0D     24
     510      14                                                00010000D     25
     510            -207       1       1                               0D     26
     510      15                                                00010000D     27
     510            -207       1       1                               0D     28
     510      16                                                00010000D     29
     510            -207       1       1                               0D     30
     510      17                                                00010000D     31
     510            -207       1       1                               0D     32
     510      18                                                00010000D     33
     510            -207       1       1                               0D     34
     510      19                                                00010000D     35
     510            -207       1       1                               0D     36
     510      20                                                00010000D     37
     510            -207       1       1                               0D     38
     508      21                                                00010000D     39
     508                       1       1                               0D     40
     508      22                                                00010000D     41
     508                       1       1                               0D     42
     508      23                                                00010000D     43
     508                       1       1                               0D     44
     508      24                                                00010000D     45
     508                       1       1                               0D     46
     508      25                                                00010000D     47
     508                       1       1                               0D     48
     508      26                                                00010000D     49
     508                       2       1                               0D     50
     508      28                                                00010000D     51
     508                       1       1                               0D     52
     508      29                                                00010000D     53
     508                       2       1                               0D     54
     508      31                                                00010000D     55
     508                       1       1                               0D     56
     508      32                                                00010000D     57
     508                       1       1                               0D     58
     508      33                                                00010000D     59
     508                       1       1                               0D     60
     508      34                                                00010000D     61
     508                       1       1                               0D     62
     508      35                                                00010000D     63
     508                       1       1                               0D     64
     508      36                                                00010000D     65
     508                       1       1                               0D     66
     508      37                                                00010000D     67
     508                       1       1                               0D     68
     508      38                                                00010000D     69
     508                       1       1                               0D     70
     508      39                                                00010000D     71
     508                       1       1                               0D     72
     508      40                                                00010000D     73
     508                       1       1                               0D     74
     508      41                                                00010000D     75
     508                       1       1                               0D     76
     508      42                                                00010000D     77
     508                       1       1                               0D     78
     508      43                                                00010000D     79
     508                       1       1                               0D     80
     508      44                                                00010000D     81
     508                       1       1                               0D     82
     126      45                                                00010000D     83
     126       0               3       0                               0D     84
     126      48                                                00010000D     85
     126       0               4       0                               0D     86
     126      52                                                00010000D     87
     126       0               3       0                               0D     88
     126      55                                                00010000D     89
     126       0               4       0                               0D     90
     126      59                                                00010000D     91
     126       0               3       0                               0D     92
     126      62                                                00010000D     93
     126       0               4       0                               0D     94
     126      66                                                00010000D     95
     126       0               3       0                               0D     96
     126      69                                                00010000D     97
     126       0               4       0                               0D     98
     126      73                                                00010000D     99
     126       0               8       0                               0D    100
     126      81                                                00010000D    101
     126       0               3       0                               0D    102
     126      84                                                00010000D    103
     126       0               8       0                               0D    104
     126      92                                                00010000D    105
     126       0               8       0                               0D    106
     126     100                                                00010000D    107
     126       0               3       0                               0D    108
     126     103                                                00010000D    109
     126       0               8       0                               0D    110
     126     111                                                00010000D    111
     126       0              12       0                               0D    112
     126     123                                                00010000D    113
     126       0              12       0                               0D    114
     126     135                                                00010000D    115
     126       0               3       0                               0D    116
     126     138                                                00010000D    117
     126       0               4       0                               0D    118
     126     142                                                00010000D    119
     126       0               4       0                               0D    120
     126     146                                                00010000D    121
     126       0               3       0                               0D    122
     126     149                                                00010000D    123
     126       0               4       0                               0D    124
     126     153                                                00010000D    125
     126       0               4       0                               0D    126
     126     157                                                00010000D    127
     126       0               4       0                               0D    128
     126     161                                                00010000D    129
     126       0               4       0                               0D    130
     126     165                                                00010000D    131
     126       0              10       0                               0D    132
     126     175                                                00010000D    133
     126       0               2       0                               0D    134
     126     177                                                00010000D    135
     126       0              10       0                               0D    136
     126     187                                                00010000D    137
     126       0               9       0                               0D    138
     126     196                                                00010000D    139
     126       0               2       0                               0D    140
     126     198                                                00010000D    141
     126       0               9       0                               0D    142
     126     207                                                00010000D    143
     126       0               3       0                               0D    144
     126     210                                                00010000D    145
     126       0               3       0                               0D    146
     126     213                                                00010000D    147
     126       0               3       0                               0D    148
     126     216                                                00010000D    149
     126       0               3       0                               0D    150
     126     219                                                00010000D    151
     126       0               3       0                               0D    152
     126     222                                                00010000D    153
     126       0               3       0                               0D    154
     126     225                                                00010000D    155
     126       0               3       0                               0D    156
     126     228                                                00010000D    157
     126       0               3       0                               0D    158
     126     231                                                00010000D    159
     126       0               3       0                               0D    160
     126     234                                                00010000D    161
     126       0               3       0                               0D    162
     126     237                                                00010000D    163
     126       0               3       0                               0D    164
     126     240                                                00010000D    165
     126       0               3       0                               0D    166
     128     243                                                00010000D    167
     128       0    -207       6       0                               0D    168
     128     249                                                00010000D    169
     128       0    -207       6       0                               0D    170
     128     255                                                00010000D    171
     128       0    -207      14       0                               0D    172
     128     269                                                00010000D    173
     128       0    -207      14       0                               0D    174
     128     283                                                00010000D    175
     128       0    -207      22       0                               0D    176
     128     305                                                00010000D    177
     128       0    -207       7       0                               0D    178
     128     312                                                00010000D    179
     128       0    -207       7       0                               0D    180
     128     319                                                00010000D    181
     128       0    -207       7       0                               0D    182
     128     326                                                00010000D    183
     128       0    -207       6       0                               0D    184
     128     332                                                00010000D    185
     128       0    -207      12       0                               0D    186
     128     344                                                00010000D    187
     128       0    -207      13       0                               0D    188
     128     357                                                00010000D    189
     128       0    -207       6       0                               0D    190
     128     363                                                00010000D    191
     128       0    -207       6       0                               0D    192
     128     369                                                00010000D    193
     128       0    -207       6       0                               0D    194
     128     375                                                00010000D    195
     128       0    -207       6       0                               0D    196
     128     381                                                00010000D    197
     128       0    -207       7       0                               0D    198
     128     388                                                00010000D    199
     128       0    -207       7       0                               0D    200
     502     395                                                00010000D    201
     502                      17       1                               0D    202
     504     412                                                00010001D    203
     504                      12       1                               0D    204
     406     424                                                00000000D    205
     406                       1      15                               0D    206
     314     425                                                00000200D    207
     314                       2       0                               0D    208
186,3,1,0,0,1,205;                                                     1P      1
514,17,5,1,7,1,9,1,11,1,13,1,15,1,17,1,19,1,21,1,23,1,25,1,27,1,       3P      2
29,1,31,1,33,1,35,1,37,1;                                              3P      3
510,167,1,1,39;                                                        5P      4
510,169,1,1,41;                                                        7P      5
510,171,1,1,43;                                                        9P      6
510,173,1,1,45;                                                       11P      7
510,175,1,1,47;                                                       13P      8
510,177,1,1,49;                                                       15P      9
510,179,1,1,51;                                                       17P     10
510,181,1,1,53;                                                       19P     11
510,183,1,1,55;                                                       21P     12
510,185,1,1,57;                                                       23P     13
510,187,1,1,59;                                                       25P     14
510,189,1,1,61;                                                       27P     15
510,191,1,1,63;                                                       29P     16
510,193,1,1,65;                                                       31P     17
510,195,1,1,67;                                                       33P     18
510,197,4,1,69,71,73,75;                                              35P     19
510,199,3,1,77,79,81;                                                 37P     20
508,4,0,203,1,0,0,0,203,2,0,0,0,203,3,0,0,0,203,4,0,0;                39P     21
508,4,0,203,5,0,0,0,203,6,0,0,0,203,7,0,0,0,203,8,0,0;                41P     22
508,4,0,203,5,1,0,0,203,9,0,0,0,203,10,0,0,0,203,11,0,0;              43P     23
508,4,0,203,1,1,0,0,203,12,0,0,0,203,13,0,0,0,203,14,0,0;             45P     24
508,4,0,203,3,1,0,0,203,15,0,0,0,203,7,1,0,0,203,16,0,0;              47P     25
508,8,0,203,2,1,0,0,203,14,1,0,0,203,17,1,0,0,203,18,0,0,0,203,       49P     26
19,1,0,0,203,9,1,0,0,203,8,1,0,0,203,15,1,0;                          49P     27
508,4,0,203,13,1,0,0,203,20,0,0,0,203,21,0,0,0,203,17,0,0;            51P     28
508,8,0,203,6,1,0,0,203,11,1,0,0,203,22,1,0,0,203,23,0,0,0,203,       53P     29
20,1,0,0,203,12,1,0,0,203,4,1,0,0,203,16,1,0;                         53P     30
508,4,0,203,10,1,0,0,203,19,0,0,0,203,24,0,0,0,203,22,0,0;            55P     31
508,4,0,203,25,0,0,0,203,26,1,0,0,203,27,0,0,0,203,26,0,0;            57P     32
508,4,0,203,28,0,0,0,203,29,1,0,0,203,30,0,0,0,203,29,0,0;            59P     33
508,4,0,203,31,1,0,0,203,32,1,0,0,203,33,0,0,0,203,34,0,0;            61P     34
508,4,0,203,35,1,0,0,203,34,1,0,0,203,36,0,0,0,203,37,0,0;            63P     35
508,4,0,203,38,1,0,0,203,37,1,0,0,203,39,0,0,0,203,40,0,0;            65P     36
508,4,0,203,41,1,0,0,203,40,1,0,0,203,42,0,0,0,203,32,0,0;            67P     37
508,4,0,203,41,0,0,0,203,31,0,0,0,203,35,0,0,0,203,38,0,0;            69P     38
508,4,0,203,23,1,0,0,203,24,1,0,0,203,18,1,0,0,203,21,1,0;            71P     39
508,1,0,203,30,1,0;                                                   73P     40
508,1,0,203,27,1,0;                                                   75P     41
508,4,0,203,42,1,0,0,203,39,1,0,0,203,36,1,0,0,203,33,1,0;            77P     42
508,1,0,203,28,1,0;                                                   79P     43
508,1,0,203,25,1,0;                                                   81P     44
126,1,1,0,0,1,0,-0.4,-0.4,0.4,0.4,1.,1.,46.2901998612341,16.5,        83P     45
15.0000002235174,46.2901998612341,8.5,15.0000002235174,-0.4,0.4,      83P     46
0.,0.,0.;                                                             83P     47
126,1,1,0,0,1,0,1.86499773202334,1.86499773202334,                    85P     48
1.96651994644907,1.96651994644907,1.,1.,45.2749777169769,16.5,        85P     49
15.0000002235174,46.2901998612341,16.5,15.0000002235174,              85P     50
1.86499773202334,1.96651994644907,0.,0.,0.;                           85P     51
126,1,1,0,0,1,0,-0.4,-0.4,0.4,0.4,1.,1.,45.2749777169769,8.5,         87P     52
15.0000002235174,45.2749777169769,16.5,15.0000002235174,-0.4,         87P     53
0.4,0.,0.,0.;                                                         87P     54
126,1,1,0,0,1,0,-1.96651994644907,-1.96651994644907,                  89P     55
-1.86499773202334,-1.86499773202334,1.,1.,46.2901998612341,8.5,       89P     56
15.0000002235174,45.2749777169769,8.5,15.0000002235174,               89P     57
-1.96651994644907,-1.86499773202334,0.,0.,0.;                         89P     58
126,1,1,0,0,1,0,-0.4,-0.4,0.4,0.4,1.,1.,46.2901998612341,8.5,         91P     59
20.0000002980232,46.2901998612341,16.5,20.0000002980232,-0.4,         91P     60
0.4,0.,0.,0.;                                                         91P     61
126,1,1,0,0,1,0,2.11499773574864,2.11499773574864,                    93P     62
2.21651995017436,2.21651995017436,1.,1.,45.2749777169769,8.5,         93P     63
20.0000002980232,46.2901998612341,8.5,20.0000002980232,               93P     64
2.11499773574864,2.21651995017436,0.,0.,0.;                           93P     65
126,1,1,0,0,1,0,-0.4,-0.4,0.4,0.4,1.,1.,45.2749777169769,16.5,        95P     66
20.0000002980232,45.2749777169769,8.5,20.0000002980232,-0.4,0.4,      95P     67
0.,0.,0.;                                                             95P     68
126,1,1,0,0,1,0,-2.21651995017436,-2.21651995017436,                  97P     69
-2.11499773574864,-2.11499773574864,1.,1.,46.2901998612341,16.5,      97P     70
20.0000002980232,45.2749777169769,16.5,20.0000002980232,              97P     71
-2.21651995017436,-2.11499773574864,0.,0.,0.;                         97P     72
126,4,2,0,0,0,0,-2.81705847202229,-2.81705847202229,                  99P     73
-2.81705847202229,-1.49225327688037,-1.49225327688037,                99P     74
-0.167448081738445,-0.167448081738445,-0.167448081738445,1.,          99P     75
0.788516879751169,1.,0.788516879751168,1.,17.2830099570765,16.5,      99P     76
22.2830100315823,21.013575286502,16.5,33.371720741582,                99P     77
32.6769351997947,16.5,32.4537564611388,44.3402951130874,16.5,         99P     78
31.5357921806955,46.2901998612341,16.5,20.0000002980232,              99P     79
-2.81705847202229,-0.167448081738445,0.,0.,0.;                        99P     80
126,1,1,0,0,1,0,-0.4,-0.4,0.4,0.4,1.,1.,17.2830099570765,8.5,        101P     81
22.2830100315823,17.2830099570765,16.5,22.2830100315823,-0.4,        101P     82
0.4,0.,0.,0.;                                                        101P     83
126,4,2,0,0,0,0,0.167448081738445,0.167448081738445,                 103P     84
0.167448081738445,1.49225327688037,1.49225327688037,                 103P     85
2.81705847202229,2.81705847202229,2.81705847202229,1.,               103P     86
0.788516879751168,1.,0.788516879751169,1.,46.2901998612341,8.5,      103P     87
20.0000002980232,44.3402951130874,8.5,31.5357921806955,              103P     88
32.6769351997947,8.5,32.4537564611388,21.013575286502,8.5,           103P     89
33.371720741582,17.2830099570765,8.5,22.2830100315823,               103P     90
0.167448081738445,2.81705847202229,0.,0.,0.;                         103P     91
126,4,2,0,0,0,0,-2.79434352465513,-2.79434352465513,                 105P     92
-2.79434352465513,-1.48089580319679,-1.48089580319679,               105P     93
-0.167448081738445,-0.167448081738445,-0.167448081738445,1.,         105P     94
0.791996644576058,1.,0.791996644576059,1.,17.3953140338335,8.5,      105P     95
12.3953139593277,21.3303570423411,8.5,1.52245238991417,              105P     96
32.846692534169,8.5,2.56057522758669,44.363028025997,8.5,            105P     97
3.59869806525921,46.2901998612341,8.5,15.0000002235174,              105P     98
-2.79434352465513,-0.167448081738445,0.,0.,0.;                       105P     99
126,1,1,0,0,1,0,-0.4,-0.4,0.4,0.4,1.,1.,17.3953140338335,16.5,       107P    100
12.3953139593277,17.3953140338335,8.5,12.3953139593277,-0.4,0.4,     107P    101
0.,0.,0.;                                                            107P    102
126,4,2,0,0,0,0,0.167448081738445,0.167448081738445,                 109P    103
0.167448081738445,1.48089580319679,1.48089580319679,                 109P    104
2.79434352465513,2.79434352465513,2.79434352465513,1.,               109P    105
0.791996644576059,1.,0.791996644576058,1.,46.2901998612341,16.5,     109P    106
15.0000002235174,44.363028025997,16.5,3.59869806525921,              109P    107
32.846692534169,16.5,2.56057522758669,21.3303570423411,16.5,         109P    108
1.52245238991417,17.3953140338335,16.5,12.3953139593277,             109P    109
0.167448081738445,2.79434352465513,0.,0.,0.;                         109P    110
126,8,2,0,0,0,0,-6.103650953099,-6.103650953099,-6.103650953099,     111P    111
-4.6226218033444,-4.6226218033444,-3.14159265358979,                 111P    112
-3.14159265358979,-1.66056350383519,-1.66056350383519,               111P    113
-0.179534354080588,-0.179534354080588,-0.179534354080588,1.,         111P    114
0.738121489356963,1.,0.738121489356961,1.,0.738121489356961,1.,      111P    115
0.738121489356962,1.,45.2749777169769,16.5,20.0000002980232,         111P    116
42.9898937589518,16.5,32.5907919771381,30.2449470843668,16.5,        111P    117
31.4436311060833,17.5000004097819,16.5,30.2964702350285,             111P    118
17.5000004097819,16.5,17.5000002607703,17.5000004097819,16.5,        111P    119
4.70353028651209,30.2449470843669,16.5,3.55636941545731,             111P    120
42.9898937589518,16.5,2.40920854440252,45.2749777169769,16.5,        111P    121
15.0000002235174,-6.103650953099,-0.179534354080588,0.,0.,0.;        111P    122
126,8,2,0,0,0,0,-6.103650953099,-6.103650953099,-6.103650953099,     113P    123
-4.6226218033444,-4.6226218033444,-3.14159265358979,                 113P    124
-3.14159265358979,-1.66056350383519,-1.66056350383519,               113P    125
-0.179534354080588,-0.179534354080588,-0.179534354080588,1.,         113P    126
0.738121489356962,1.,0.738121489356962,1.,0.738121489356961,1.,      113P    127
0.738121489356962,1.,45.2749777169769,8.5,15.0000002235174,          113P    128
42.9898937589518,8.5,2.40920854440252,30.2449470843668,8.5,          113P    129
3.55636941545731,17.5000004097819,8.5,4.7035302865121,               113P    130
17.5000004097819,8.5,17.5000002607703,17.5000004097819,8.5,          113P    131
30.2964702350286,30.2449470843669,8.5,31.4436311060833,              113P    132
42.9898937589518,8.5,32.5907919771381,45.2749777169769,8.5,          113P    133
20.0000002980232,-6.103650953099,-0.179534354080588,0.,0.,0.;        113P    134
126,1,1,0,0,1,0,-1.75296211111538,-1.75296211111538,0.,0.,1.,1.,     115P    135
17.3953140338335,16.5,12.3953139593277,5.00000007450581,16.5,0.,     115P    136
-1.75296211111538,0.,0.,0.,0.;                                       115P    137
126,1,1,0,0,1,0,-0.812500012107193,-0.812500012107193,               117P    138
0.187500002793968,0.187500002793968,1.,1.,-5.00000007450581,         117P    139
16.5,0.,5.00000007450581,16.5,0.,-0.812500012107193,                 117P    140
0.187500002793968,0.,0.,0.;                                          117P    141
126,1,1,0,0,1,0,-3.18198056275467,-3.18198056275467,                 119P    142
-0.0306870630387226,-0.0306870630387226,1.,1.,-5.00000007450581,     119P    143
16.5,0.,17.2830099570765,16.5,22.2830100315823,                      119P    144
-3.18198056275467,-0.0306870630387226,0.,0.,0.;                      119P    145
126,1,1,0,0,1,0,0.,0.,1.75296211111538,1.75296211111538,1.,1.,       121P    146
5.00000007450581,8.5,0.,17.3953140338335,8.5,12.3953139593277,       121P    147
0.,1.75296211111538,0.,0.,0.;                                        121P    148
126,1,1,0,0,1,0,-0.399999990686774,-0.399999990686774,               123P    149
0.400000009313226,0.400000009313226,1.,1.,5.00000007450581,16.5,     123P    150
0.,5.00000007450581,8.5,0.,-0.399999990686774,0.400000009313226,     123P    151
0.,0.,0.;                                                            123P    152
126,1,1,0,0,1,0,0.0306870630387228,0.0306870630387228,               125P    153
3.18198056275467,3.18198056275467,1.,1.,17.2830099570765,8.5,        125P    154
22.2830100315823,-5.00000007450581,8.5,0.,0.0306870630387228,        125P    155
3.18198056275467,0.,0.,0.;                                           125P    156
126,1,1,0,0,1,0,-0.187500002793968,-0.187500002793968,               127P    157
0.812500012107193,0.812500012107193,1.,1.,5.00000007450581,8.5,      127P    158
0.,-5.00000007450581,8.5,0.,-0.187500002793968,                      127P    159
0.812500012107193,0.,0.,0.;                                          127P    160
126,1,1,0,0,1,0,-0.400000009313226,-0.400000009313226,               129P    161
0.399999990686774,0.399999990686774,1.,1.,-5.00000007450581,8.5,     129P    162
0.,-5.00000007450581,16.5,0.,-0.400000009313226,                     129P    163
0.399999990686774,0.,0.,0.;                                          129P    164
126,8,2,0,1,0,0,-3.14159265358979,-3.14159265358979,                 131P    165
-3.14159265358979,-1.5707963267949,-1.5707963267949,0.,0.,           131P    166
1.5707963267949,1.5707963267949,3.14159265358979,                    131P    167
3.14159265358979,3.14159265358979,1.,0.707106781186548,1.,           131P    168
0.707106781186548,1.,0.707106781186548,1.,0.707106781186548,1.,      131P    169
-3.25,-3.9801020972289D-16,-1.5,-3.25,-3.25,-1.5,                    131P    170
1.99005104861445D-16,-3.25,-1.5,3.25,-3.25,-1.5,3.25,0.,-1.5,        131P    171
3.25,3.25,-1.5,1.99005104861445D-16,3.25,-1.5,-3.25,3.25,-1.5,       131P    172
-3.25,3.9801020972289D-16,-1.5,-3.14159265358979,                    131P    173
3.14159265358979,0.,0.,0.;                                           131P    174
126,1,1,0,0,1,0,-0.461538461538462,-0.461538461538462,0.,0.,1.,      133P    175
1.,-3.25,0.,-1.5,-3.25,0.,0.,-0.461538461538462,0.,0.,0.,0.;         133P    176
126,8,2,0,1,0,0,-3.14159265358979,-3.14159265358979,                 135P    177
-3.14159265358979,-1.5707963267949,-1.5707963267949,0.,0.,           135P    178
1.5707963267949,1.5707963267949,3.14159265358979,                    135P    179
3.14159265358979,3.14159265358979,1.,0.707106781186548,1.,           135P    180
0.707106781186548,1.,0.707106781186548,1.,0.707106781186548,1.,      135P    181
-3.25,3.9801020972289D-16,0.,-3.25,3.25,0.,1.99005104861445D-16,     135P    182
3.25,0.,3.25,3.25,0.,3.25,0.,0.,3.25,-3.25,0.,                       135P    183
1.99005104861445D-16,-3.25,0.,-3.25,-3.25,0.,-3.25,                  135P    184
-3.9801020972289D-16,0.,-3.14159265358979,3.14159265358979,0.,       135P    185
0.,0.;                                                               135P    186
126,8,2,0,1,0,0,-3.14159265358979,-3.14159265358979,                 137P    187
-3.14159265358979,-1.5707963267949,-1.5707963267949,0.,0.,           137P    188
1.5707963267949,1.5707963267949,3.14159265358979,                    137P    189
3.14159265358979,3.14159265358979,1.,0.707106781186546,1.,           137P    190
0.707106781186546,1.,0.707106781186546,1.,0.707106781186546,1.,      137P    191
-3.25,25.,-1.5,-3.25,21.75,-1.5,1.99005104861445D-16,21.75,-1.5,     137P    192
3.25,21.75,-1.5,3.25,25.,-1.5,3.25,28.25,-1.5,                       137P    193
1.99005104861445D-16,28.25,-1.5,-3.25,28.25,-1.5,-3.25,25.,-1.5,     137P    194
-3.14159265358979,3.14159265358979,0.,0.,0.;                         137P    195
126,1,1,0,0,1,0,-0.461538461538462,-0.461538461538462,0.,0.,1.,      139P    196
1.,-3.25,25.,-1.5,-3.25,25.,0.,-0.461538461538462,0.,0.,0.,0.;       139P    197
126,8,2,0,1,0,0,-3.14159265358979,-3.14159265358979,                 141P    198
-3.14159265358979,-1.5707963267949,-1.5707963267949,0.,0.,           141P    199
1.5707963267949,1.5707963267949,3.14159265358979,                    141P    200
3.14159265358979,3.14159265358979,1.,0.707106781186546,1.,           141P    201
0.707106781186546,1.,0.707106781186546,1.,0.707106781186546,1.,      141P    202
-3.25,25.,0.,-3.25,28.25,0.,1.99005104861445D-16,28.25,0.,3.25,      141P    203
28.25,0.,3.25,25.,0.,3.25,21.75,0.,1.99005104861445D-16,21.75,       141P    204
0.,-3.25,21.75,0.,-3.25,25.,0.,-3.14159265358979,                    141P    205
3.14159265358979,0.,0.,0.;                                           141P    206
126,1,1,0,0,1,0,0.,0.,4.00000005811453,4.00000005811453,1.,1.,       143P    207
7.50000010430813,32.5000004768372,0.,7.50000010430813,               143P    208
-7.50000010430813,0.,0.,4.00000005811453,0.,0.,0.;                   143P    209
126,1,1,0,0,1,0,0.,0.,0.15,0.15,1.,1.,7.50000010430813,              145P    210
-7.50000010430813,0.,7.50000010430813,-7.50000010430813,-1.5,0.,     145P    211
0.15,0.,0.,0.;                                                       145P    212
126,1,1,0,0,1,0,0.,0.,4.00000005811453,4.00000005811453,1.,1.,       147P    213
7.50000010430813,32.5000004768372,-1.5,7.50000010430813,             147P    214
-7.50000010430813,-1.5,0.,4.00000005811453,0.,0.,0.;                 147P    215
126,1,1,0,0,1,0,0.,0.,0.15,0.15,1.,1.,7.50000010430813,              149P    216
32.5000004768372,0.,7.50000010430813,32.5000004768372,-1.5,0.,       149P    217
0.15,0.,0.,0.;                                                       149P    218
126,1,1,0,0,1,0,0.,0.,1.50000002086163,1.50000002086163,1.,1.,       151P    219
-7.50000010430813,32.5000004768372,0.,7.50000010430813,              151P    220
32.5000004768372,0.,0.,1.50000002086163,0.,0.,0.;                    151P    221
126,1,1,0,0,1,0,0.,0.,1.50000002086163,1.50000002086163,1.,1.,       153P    222
-7.50000010430813,32.5000004768372,-1.5,7.50000010430813,            153P    223
32.5000004768372,-1.5,0.,1.50000002086163,0.,0.,0.;                  153P    224
126,1,1,0,0,1,0,0.,0.,0.15,0.15,1.,1.,-7.50000010430813,             155P    225
32.5000004768372,0.,-7.50000010430813,32.5000004768372,-1.5,0.,      155P    226
0.15,0.,0.,0.;                                                       155P    227
126,1,1,0,0,1,0,0.,0.,4.00000005811453,4.00000005811453,1.,1.,       157P    228
-7.50000010430813,-7.50000010430813,0.,-7.50000010430813,            157P    229
32.5000004768372,0.,0.,4.00000005811453,0.,0.,0.;                    157P    230
126,1,1,0,0,1,0,0.,0.,4.00000005811453,4.00000005811453,1.,1.,       159P    231
-7.50000010430813,-7.50000010430813,-1.5,-7.50000010430813,          159P    232
32.5000004768372,-1.5,0.,4.00000005811453,0.,0.,0.;                  159P    233
126,1,1,0,0,1,0,0.,0.,0.15,0.15,1.,1.,-7.50000010430813,             161P    234
-7.50000010430813,0.,-7.50000010430813,-7.50000010430813,-1.5,       161P    235
0.,0.15,0.,0.,0.;                                                    161P    236
126,1,1,0,0,1,0,0.,0.,1.50000002086163,1.50000002086163,1.,1.,       163P    237
7.50000010430813,-7.50000010430813,0.,-7.50000010430813,             163P    238
-7.50000010430813,0.,0.,1.50000002086163,0.,0.,0.;                   163P    239
126,1,1,0,0,1,0,0.,0.,1.50000002086163,1.50000002086163,1.,1.,       165P    240
7.50000010430813,-7.50000010430813,-1.5,-7.50000010430813,           165P    241
-7.50000010430813,-1.5,0.,1.50000002086163,0.,0.,0.;                 165P    242
128,1,1,1,1,0,0,1,0,0,0.0699800839120494,0.0699800839120494,         167P    243
0.173502298337771,0.173502298337771,-0.401,-0.401,0.401,0.401,       167P    244
1.,1.,1.,1.,45.2649777169769,8.49,15.0000002235174,                  167P    245
46.3001998612341,8.49,15.0000002235174,45.2649777169769,16.51,       167P    246
15.0000002235174,46.3001998612341,16.51,15.0000002235174,            167P    247
0.0699800839120494,0.173502298337771,-0.401,0.401;                   167P    248
128,1,1,1,1,0,0,1,0,0,0.32649770911281,0.32649770911281,             169P    249
0.430019923538531,0.430019923538531,-0.401,-0.401,0.401,0.401,       169P    250
1.,1.,1.,1.,46.3001998612341,8.49,20.0000002980232,                  169P    251
45.2649777169769,8.49,20.0000002980232,46.3001998612341,16.51,       169P    252
20.0000002980232,45.2649777169769,16.51,20.0000002980232,            169P    253
0.32649770911281,0.430019923538531,-0.401,0.401;                     169P    254
128,1,4,1,2,0,0,0,0,0,-0.285714285714286,-0.285714285714286,         171P    255
0.285714285714286,0.285714285714286,-2.81705847202229,               171P    256
-2.81705847202229,-2.81705847202229,-1.49225327688037,               171P    257
-1.49225327688037,-0.167448081738445,-0.167448081738445,             171P    258
-0.167448081738445,1.,1.,0.788516879751169,0.788516879751169,1.,     171P    259
1.,0.788516879751169,0.788516879751169,1.,1.,17.2830099570765,       171P    260
16.5,22.2830100315823,17.2830099570765,8.5,22.2830100315823,         171P    261
21.013575286502,16.5,33.371720741582,21.013575286502,8.5,            171P    262
33.371720741582,32.6769351997947,16.5,32.4537564611388,              171P    263
32.6769351997947,8.5,32.4537564611388,44.3402951130874,16.5,         171P    264
31.5357921806955,44.3402951130874,8.5,31.5357921806955,              171P    265
46.2901998612341,16.5,20.0000002980232,46.2901998612341,8.5,         171P    266
20.0000002980232,-0.285714285714286,0.285714285714286,               171P    267
-2.81705847202229,-0.167448081738445;                                171P    268
128,1,4,1,2,0,0,0,0,0,-0.285714285714286,-0.285714285714286,         173P    269
0.285714285714286,0.285714285714286,0.167448081738445,               173P    270
0.167448081738445,0.167448081738445,1.48089580319679,                173P    271
1.48089580319679,2.79434352465513,2.79434352465513,                  173P    272
2.79434352465513,1.,1.,0.791996644576059,0.791996644576059,1.,       173P    273
1.,0.791996644576059,0.791996644576059,1.,1.,46.2901998612341,       173P    274
16.5,15.0000002235174,46.2901998612341,8.5,15.0000002235174,         173P    275
44.363028025997,16.5,3.59869806525921,44.363028025997,8.5,           173P    276
3.59869806525921,32.846692534169,16.5,2.56057522758669,              173P    277
32.846692534169,8.5,2.56057522758669,21.3303570423411,16.5,          173P    278
1.52245238991418,21.3303570423411,8.5,1.52245238991418,              173P    279
17.3953140338335,16.5,12.3953139593277,17.3953140338335,8.5,         173P    280
12.3953139593277,-0.285714285714286,0.285714285714286,               173P    281
0.167448081738445,2.79434352465513;                                  173P    282
128,1,8,1,2,0,0,0,0,0,-0.285714285714286,-0.285714285714286,         175P    283
0.285714285714286,0.285714285714286,0.179534354080588,               175P    284
0.179534354080588,0.179534354080588,1.66056350383519,                175P    285
1.66056350383519,3.14159265358979,3.14159265358979,                  175P    286
4.6226218033444,4.6226218033444,6.103650953099,6.103650953099,       175P    287
6.103650953099,1.,1.,0.738121489356961,0.738121489356961,1.,1.,      175P    288
0.738121489356961,0.738121489356961,1.,1.,0.738121489356961,         175P    289
0.738121489356961,1.,1.,0.738121489356961,0.738121489356961,1.,      175P    290
1.,45.2749777169769,8.5,15.0000002235174,45.2749777169769,16.5,      175P    291
15.0000002235174,42.9898937589518,8.5,2.40920854440252,              175P    292
42.9898937589518,16.5,2.40920854440252,30.2449470843669,8.5,         175P    293
3.55636941545731,30.2449470843669,16.5,3.55636941545731,             175P    294
17.5000004097819,8.5,4.70353028651209,17.5000004097819,16.5,         175P    295
4.70353028651209,17.5000004097819,8.5,17.5000002607703,              175P    296
17.5000004097819,16.5,17.5000002607703,17.5000004097819,8.5,         175P    297
30.2964702350286,17.5000004097819,16.5,30.2964702350286,             175P    298
30.2449470843669,8.5,31.4436311060833,30.2449470843669,16.5,         175P    299
31.4436311060833,42.9898937589518,8.5,32.5907919771381,              175P    300
42.9898937589518,16.5,32.5907919771381,45.2749777169769,8.5,         175P    301
20.0000002980232,45.2749777169769,16.5,20.0000002980232,             175P    302
-0.285714285714286,0.285714285714286,0.179534354080588,              175P    303
6.103650953099;                                                      175P    304
128,1,1,1,1,0,0,1,0,0,-1.12600001676381,-1.12600001676381,           177P    305
2.21317205739439,2.21317205739439,-1.12600001676381,                 177P    306
-1.12600001676381,4.00501997681018,4.00501997681018,1.,1.,1.,1.,     177P    307
-5.0100000745058,16.5,-0.0099999999999989,-5.0100000745058,16.5,     177P    308
33.381720741582,46.3001998612341,16.5,-0.0099999999999989,           177P    309
46.3001998612341,16.5,33.381720741582,-1.12600001676381,             177P    310
2.21317205739439,-1.12600001676381,4.00501997681018;                 177P    311
128,1,1,1,1,0,0,1,0,0,0.0138048681927663,0.0138048681927663,         179P    312
1.76876697930815,1.76876697930815,-0.401,-0.401,0.401,0.401,1.,      179P    313
1.,1.,1.,17.4023851016454,8.49,12.4023850271396,                     179P    314
4.99292900669394,8.49,-0.00707106781186351,17.4023851016454,         179P    315
16.51,12.4023850271396,4.99292900669394,16.51,                       179P    316
-0.00707106781186351,0.0138048681927663,1.76876697930815,-0.401,     179P    317
0.401;                                                               179P    318
128,1,1,1,1,0,0,1,0,0,-2.21317205739439,-2.21317205739439,           181P    319
1.12600001676381,1.12600001676381,-1.12600001676381,                 181P    320
-1.12600001676381,4.00501997681018,4.00501997681018,1.,1.,1.,1.,     181P    321
-5.0100000745058,8.5,33.381720741582,-5.0100000745058,8.5,           181P    322
-0.0099999999999989,46.3001998612341,8.5,33.381720741582,            181P    323
46.3001998612341,8.5,-0.0099999999999989,-2.21317205739439,          181P    324
1.12600001676381,-1.12600001676381,4.00501997681018;                 181P    325
128,1,1,1,1,0,0,1,0,0,-0.001,-0.001,3.15229349971595,                183P    326
3.15229349971595,-0.401,-0.401,0.401,0.401,1.,1.,1.,1.,              183P    327
-5.00707114231767,8.49,-0.00707106781186548,17.2900810248884,        183P    328
8.49,22.2900810993942,-5.00707114231767,16.51,                       183P    329
-0.00707106781186548,17.2900810248884,16.51,22.2900810993942,        183P    330
-0.001,3.15229349971595,-0.401,0.401;                                183P    331
128,1,8,1,2,0,1,0,0,1,0.,0.,0.461538461538462,0.461538461538462,     185P    332
-3.14159265358979,-3.14159265358979,-3.14159265358979,               185P    333
-1.5707963267949,-1.5707963267949,0.,0.,1.5707963267949,             185P    334
1.5707963267949,3.14159265358979,3.14159265358979,                   185P    335
3.14159265358979,1.,1.,0.707106781186548,0.707106781186548,1.,       185P    336
1.,0.707106781186548,0.707106781186548,1.,1.,0.707106781186548,      185P    337
0.707106781186548,1.,1.,0.707106781186548,0.707106781186548,1.,      185P    338
1.,-3.25,0.,0.,-3.25,0.,-1.5,-3.25,3.25,0.,-3.25,3.25,-1.5,0.,       185P    339
3.25,0.,0.,3.25,-1.5,3.25,3.25,0.,3.25,3.25,-1.5,3.25,0.,0.,         185P    340
3.25,0.,-1.5,3.25,-3.25,0.,3.25,-3.25,-1.5,0.,-3.25,0.,0.,-3.25,     185P    341
-1.5,-3.25,-3.25,0.,-3.25,-3.25,-1.5,-3.25,0.,0.,-3.25,0.,-1.5,      185P    342
0.,0.461538461538462,-3.14159265358979,3.14159265358979;             185P    343
128,1,8,1,2,0,1,0,0,1,0.,0.,0.461538461538462,0.461538461538462,     187P    344
-3.14159265358979,-3.14159265358979,-3.14159265358979,               187P    345
-1.5707963267949,-1.5707963267949,0.,0.,1.5707963267949,             187P    346
1.5707963267949,3.14159265358979,3.14159265358979,                   187P    347
3.14159265358979,1.,1.,0.707106781186548,0.707106781186548,1.,       187P    348
1.,0.707106781186548,0.707106781186548,1.,1.,0.707106781186548,      187P    349
0.707106781186548,1.,1.,0.707106781186548,0.707106781186548,1.,      187P    350
1.,-3.25,25.,0.,-3.25,25.,-1.5,-3.25,28.25,0.,-3.25,28.25,-1.5,      187P    351
0.,28.25,0.,0.,28.25,-1.5,3.25,28.25,0.,3.25,28.25,-1.5,3.25,        187P    352
25.,0.,3.25,25.,-1.5,3.25,21.75,0.,3.25,21.75,-1.5,0.,21.75,0.,      187P    353
0.,21.75,-1.5,-3.25,21.75,0.,-3.25,21.75,-1.5,-3.25,25.,0.,          187P    354
-3.25,25.,-1.5,0.,0.461538461538462,-3.14159265358979,               187P    355
3.14159265358979;                                                    187P    356
128,1,1,1,1,0,0,1,0,0,-0.001,-0.001,4.00100005811453,                189P    357
4.00100005811453,-0.001,-0.001,0.151,0.151,1.,1.,1.,1.,              189P    358
7.50000010430813,32.5100004768372,0.01,7.50000010430813,             189P    359
-7.51000010430813,0.01,7.50000010430813,32.5100004768372,-1.51,      189P    360
7.50000010430813,-7.51000010430813,-1.51,-0.001,                     189P    361
4.00100005811453,-0.001,0.151;                                       189P    362
128,1,1,1,1,0,0,1,0,0,-0.001,-0.001,1.50100002086163,                191P    363
1.50100002086163,-0.001,-0.001,0.151,0.151,1.,1.,1.,1.,              191P    364
-7.51000010430813,32.5000004768372,0.01,7.51000010430813,            191P    365
32.5000004768372,0.01,-7.51000010430813,32.5000004768372,-1.51,      191P    366
7.51000010430813,32.5000004768372,-1.51,-0.001,1.50100002086163,     191P    367
-0.001,0.151;                                                        191P    368
128,1,1,1,1,0,0,1,0,0,-0.001,-0.001,4.00100005811453,                193P    369
4.00100005811453,-0.001,-0.001,0.151,0.151,1.,1.,1.,1.,              193P    370
-7.50000010430813,-7.51000010430813,0.01,-7.50000010430813,          193P    371
32.5100004768372,0.01,-7.50000010430813,-7.51000010430813,-1.51,     193P    372
-7.50000010430813,32.5100004768372,-1.51,-0.001,                     193P    373
4.00100005811453,-0.001,0.151;                                       193P    374
128,1,1,1,1,0,0,1,0,0,-0.001,-0.001,1.50100002086163,                195P    375
1.50100002086163,-0.001,-0.001,0.151,0.151,1.,1.,1.,1.,              195P    376
7.51000010430813,-7.50000010430813,0.01,-7.51000010430813,           195P    377
-7.50000010430813,0.01,7.51000010430813,-7.50000010430813,-1.51,     195P    378
-7.51000010430813,-7.50000010430813,-1.51,-0.001,                    195P    379
1.50100002086163,-0.001,0.151;                                       195P    380
128,1,1,1,1,0,0,1,0,0,-0.751000010430813,-0.751000010430813,         197P    381
0.751000010430813,0.751000010430813,-2.00100002905726,               197P    382
-2.00100002905726,2.00100002905726,2.00100002905726,1.,1.,1.,1.,     197P    383
-7.51000010430813,-7.51000010430813,0.,7.51000010430813,             197P    384
-7.51000010430813,0.,-7.51000010430813,32.5100004768372,0.,          197P    385
7.51000010430813,32.5100004768372,0.,-0.751000010430813,             197P    386
0.751000010430813,-2.00100002905726,2.00100002905726;                197P    387
128,1,1,1,1,0,0,1,0,0,-0.751000010430813,-0.751000010430813,         199P    388
0.751000010430813,0.751000010430813,-2.00100002905726,               199P    389
-2.00100002905726,2.00100002905726,2.00100002905726,1.,1.,1.,1.,     199P    390
7.51000010430813,-7.51000010430813,-1.5,-7.51000010430813,           199P    391
-7.51000010430813,-1.5,7.51000010430813,32.5100004768372,-1.5,       199P    392
-7.51000010430813,32.5100004768372,-1.5,-0.751000010430813,          199P    393
0.751000010430813,-2.00100002905726,2.00100002905726;                199P    394
502,28,46.2901998612341,16.5,15.0000002235174,46.2901998612341,      201P    395
8.5,15.0000002235174,45.2749777169769,16.5,15.0000002235174,         201P    396
45.2749777169769,8.5,15.0000002235174,46.2901998612341,8.5,          201P    397
20.0000002980232,46.2901998612341,16.5,20.0000002980232,             201P    398
45.2749777169769,8.5,20.0000002980232,45.2749777169769,16.5,         201P    399
20.0000002980232,17.2830099570765,16.5,22.2830100315823,             201P    400
17.2830099570765,8.5,22.2830100315823,17.3953140338335,8.5,          201P    401
12.3953139593277,17.3953140338335,16.5,12.3953139593277,             201P    402
5.00000007450581,16.5,0.,-5.00000007450581,16.5,0.,                  201P    403
5.00000007450581,8.5,0.,-5.00000007450581,8.5,0.,-3.25,0.,-1.5,      201P    404
-3.25,-3.9801020972289D-16,0.,-3.25,25.,-1.5,-3.25,25.,0.,           201P    405
7.50000010430813,32.5000004768372,0.,7.50000010430813,               201P    406
-7.50000010430813,0.,7.50000010430813,-7.50000010430813,-1.5,        201P    407
7.50000010430813,32.5000004768372,-1.5,-7.50000010430813,            201P    408
32.5000004768372,0.,-7.50000010430813,32.5000004768372,-1.5,         201P    409
-7.50000010430813,-7.50000010430813,0.,-7.50000010430813,            201P    410
-7.50000010430813,-1.5;                                              201P    411
504,42,83,201,1,201,2,85,201,3,201,1,87,201,4,201,3,89,201,2,        203P    412
201,4,91,201,5,201,6,93,201,7,201,5,95,201,8,201,7,97,201,6,201,     203P    413
8,99,201,9,201,6,101,201,10,201,9,103,201,5,201,10,105,201,11,       203P    414
201,2,107,201,12,201,11,109,201,1,201,12,111,201,8,201,3,113,        203P    415
201,4,201,7,115,201,12,201,13,117,201,14,201,13,119,201,14,201,      203P    416
9,121,201,15,201,11,123,201,13,201,15,125,201,10,201,16,127,201,     203P    417
15,201,16,129,201,16,201,14,131,201,17,201,17,133,201,17,201,18,     203P    418
135,201,18,201,18,137,201,19,201,19,139,201,19,201,20,141,201,       203P    419
20,201,20,143,201,21,201,22,145,201,22,201,23,147,201,24,201,23,     203P    420
149,201,21,201,24,151,201,25,201,21,153,201,26,201,24,155,201,       203P    421
25,201,26,157,201,27,201,25,159,201,28,201,26,161,201,27,201,28,     203P    422
163,201,22,201,27,165,201,23,201,28;                                 203P    423
406,1,5HBody1;                                                       205P    424
314,62.7450980392157,62.7450980392157,62.7450980392157,13HSteel      207P    425
- Satin;                                                             207P    426
S      1G      3D    208P    426                                        T      1
